<svg width="75" height="24" viewBox="0 0 75 24" fill="none" xmlns="http://www.w3.org/2000/svg">
    <path d="M42.8047 17H41.4854V12.3994H36.4678V17H35.1553V7.04688H36.4678V11.3262H41.4854V7.04688H42.8047V17ZM49.5039 17C49.431 16.8542 49.3717 16.5944 49.3262 16.2207C48.7383 16.8314 48.0365 17.1367 47.2207 17.1367C46.4915 17.1367 45.8923 16.9316 45.4229 16.5215C44.958 16.1068 44.7256 15.5827 44.7256 14.9492C44.7256 14.179 45.0173 13.582 45.6006 13.1582C46.1885 12.7298 47.0133 12.5156 48.0752 12.5156H49.3057V11.9346C49.3057 11.4925 49.1735 11.1416 48.9092 10.8818C48.6449 10.6175 48.2552 10.4854 47.7402 10.4854C47.2891 10.4854 46.9108 10.5993 46.6055 10.8271C46.3001 11.055 46.1475 11.3307 46.1475 11.6543H44.876C44.876 11.2852 45.0059 10.9297 45.2656 10.5879C45.5299 10.2415 45.8854 9.9681 46.332 9.76758C46.7832 9.56706 47.2777 9.4668 47.8154 9.4668C48.6676 9.4668 49.3353 9.68099 49.8184 10.1094C50.3014 10.5332 50.5521 11.1188 50.5703 11.8662V15.2705C50.5703 15.9495 50.6569 16.4896 50.8301 16.8906V17H49.5039ZM47.4053 16.0361C47.8018 16.0361 48.1777 15.9336 48.5332 15.7285C48.8887 15.5234 49.1462 15.2568 49.3057 14.9287V13.4111H48.3145C46.765 13.4111 45.9902 13.8646 45.9902 14.7715C45.9902 15.168 46.1224 15.4779 46.3867 15.7012C46.651 15.9245 46.9906 16.0361 47.4053 16.0361ZM56.6201 11.627C56.6201 11.2806 56.488 11.0072 56.2236 10.8066C55.9593 10.6016 55.597 10.499 55.1367 10.499C54.6901 10.499 54.3164 10.6152 54.0156 10.8477C53.7194 11.0801 53.5713 11.3535 53.5713 11.668H52.3135C52.3135 11.0254 52.5824 10.499 53.1201 10.0889C53.6579 9.67871 54.3301 9.47363 55.1367 9.47363C56.0026 9.47363 56.6771 9.66048 57.1602 10.0342C57.6432 10.4033 57.8848 10.932 57.8848 11.6201C57.8848 11.9528 57.7845 12.2581 57.584 12.5361C57.3835 12.8141 57.0986 13.0352 56.7295 13.1992C57.5908 13.4909 58.0215 14.0651 58.0215 14.9219C58.0215 15.6009 57.7594 16.1387 57.2354 16.5352C56.7113 16.9316 56.0117 17.1299 55.1367 17.1299C54.2845 17.1299 53.5804 16.9225 53.0244 16.5078C52.473 16.0885 52.1973 15.5234 52.1973 14.8125H53.4551C53.4551 15.1725 53.6146 15.4824 53.9336 15.7422C54.2572 15.9974 54.6582 16.125 55.1367 16.125C55.6198 16.125 56.0094 16.0133 56.3057 15.79C56.6019 15.5667 56.75 15.2773 56.75 14.9219C56.75 14.5072 56.6247 14.2109 56.374 14.0332C56.1279 13.8509 55.7428 13.7598 55.2188 13.7598H53.9541V12.6934H55.3281C56.1895 12.6706 56.6201 12.3151 56.6201 11.627ZM64.2285 17C64.1556 16.8542 64.0964 16.5944 64.0508 16.2207C63.4629 16.8314 62.7611 17.1367 61.9453 17.1367C61.2161 17.1367 60.6169 16.9316 60.1475 16.5215C59.6826 16.1068 59.4502 15.5827 59.4502 14.9492C59.4502 14.179 59.7419 13.582 60.3252 13.1582C60.9131 12.7298 61.738 12.5156 62.7998 12.5156H64.0303V11.9346C64.0303 11.4925 63.8981 11.1416 63.6338 10.8818C63.3695 10.6175 62.9798 10.4854 62.4648 10.4854C62.0137 10.4854 61.6354 10.5993 61.3301 10.8271C61.0247 11.055 60.8721 11.3307 60.8721 11.6543H59.6006C59.6006 11.2852 59.7305 10.9297 59.9902 10.5879C60.2546 10.2415 60.61 9.9681 61.0566 9.76758C61.5078 9.56706 62.0023 9.4668 62.54 9.4668C63.3923 9.4668 64.0599 9.68099 64.543 10.1094C65.026 10.5332 65.2767 11.1188 65.2949 11.8662V15.2705C65.2949 15.9495 65.3815 16.4896 65.5547 16.8906V17H64.2285ZM62.1299 16.0361C62.5264 16.0361 62.9023 15.9336 63.2578 15.7285C63.6133 15.5234 63.8708 15.2568 64.0303 14.9287V13.4111H63.0391C61.4896 13.4111 60.7148 13.8646 60.7148 14.7715C60.7148 15.168 60.847 15.4779 61.1113 15.7012C61.3757 15.9245 61.7152 16.0361 62.1299 16.0361ZM67.2158 15.9678L67.6533 15.4277C68.1455 14.7897 68.4258 13.8327 68.4941 12.5566L68.6104 9.60352H73.375V15.9678H74.3252V19.1738H73.0605V17H67.8994V19.1738H66.6348L66.6416 15.9678H67.2158ZM68.7129 15.9678H72.1104V10.7725H69.834L69.7588 12.5361C69.6813 14.0081 69.3327 15.152 68.7129 15.9678Z" fill="#508E87"/>
    <path d="M20.0002 11.0001V13.0001H8.00016L13.5002 18.5001L12.0802 19.9201L4.16016 12.0001L12.0802 4.08008L13.5002 5.50008L8.00016 11.0001H20.0002Z" fill="#61A199"/>
</svg>
