<svg width="304" height="118" viewBox="0 0 304 118" fill="none" xmlns="http://www.w3.org/2000/svg">
<path d="M12.5098 84H10.625V71.3242H3.61328V84H1.73828V69.7812H12.5098V84ZM20.0293 84.1953C18.597 84.1953 17.4316 83.7266 16.5332 82.7891C15.6348 81.8451 15.1855 80.5853 15.1855 79.0098V78.6777C15.1855 77.6296 15.3841 76.6953 15.7812 75.875C16.1849 75.0482 16.7448 74.4036 17.4609 73.9414C18.1836 73.4727 18.9648 73.2383 19.8047 73.2383C21.1784 73.2383 22.2461 73.6908 23.0078 74.5957C23.7695 75.5007 24.1504 76.7962 24.1504 78.4824V79.2344H16.9922C17.0182 80.276 17.321 81.1191 17.9004 81.7637C18.4863 82.4017 19.2285 82.7207 20.127 82.7207C20.765 82.7207 21.3053 82.5905 21.748 82.3301C22.1908 82.0697 22.5781 81.7246 22.9102 81.2949L24.0137 82.1543C23.1283 83.515 21.8001 84.1953 20.0293 84.1953ZM19.8047 74.7227C19.0755 74.7227 18.4635 74.9896 17.9688 75.5234C17.474 76.0508 17.168 76.793 17.0508 77.75H22.3438V77.6133C22.2917 76.6953 22.0443 75.9857 21.6016 75.4844C21.1589 74.9766 20.5599 74.7227 19.8047 74.7227ZM35.1758 78.834C35.1758 80.4421 34.8079 81.7376 34.0723 82.7207C33.3366 83.7038 32.3405 84.1953 31.084 84.1953C29.8014 84.1953 28.7923 83.7884 28.0566 82.9746V88.0625H26.25V73.4336H27.9004L27.9883 74.6055C28.724 73.694 29.7461 73.2383 31.0547 73.2383C32.3242 73.2383 33.3268 73.7168 34.0625 74.6738C34.8047 75.6309 35.1758 76.9622 35.1758 78.668V78.834ZM33.3691 78.6289C33.3691 77.4375 33.1152 76.4967 32.6074 75.8066C32.0996 75.1165 31.403 74.7715 30.5176 74.7715C29.4238 74.7715 28.6035 75.2565 28.0566 76.2266V81.2754C28.597 82.2389 29.4238 82.7207 30.5371 82.7207C31.403 82.7207 32.0898 82.3789 32.5977 81.6953C33.112 81.0052 33.3691 79.9831 33.3691 78.6289ZM41.8652 84.1953C40.4329 84.1953 39.2676 83.7266 38.3691 82.7891C37.4707 81.8451 37.0215 80.5853 37.0215 79.0098V78.6777C37.0215 77.6296 37.2201 76.6953 37.6172 75.875C38.0208 75.0482 38.5807 74.4036 39.2969 73.9414C40.0195 73.4727 40.8008 73.2383 41.6406 73.2383C43.0143 73.2383 44.082 73.6908 44.8438 74.5957C45.6055 75.5007 45.9863 76.7962 45.9863 78.4824V79.2344H38.8281C38.8542 80.276 39.1569 81.1191 39.7363 81.7637C40.3223 82.4017 41.0645 82.7207 41.9629 82.7207C42.6009 82.7207 43.1413 82.5905 43.584 82.3301C44.0267 82.0697 44.4141 81.7246 44.7461 81.2949L45.8496 82.1543C44.9642 83.515 43.6361 84.1953 41.8652 84.1953ZM41.6406 74.7227C40.9115 74.7227 40.2995 74.9896 39.8047 75.5234C39.3099 76.0508 39.0039 76.793 38.8867 77.75H44.1797V77.6133C44.1276 76.6953 43.8802 75.9857 43.4375 75.4844C42.9948 74.9766 42.3958 74.7227 41.6406 74.7227ZM55.8203 74.8984H52.2754V84H50.4688V74.8984H46.9922V73.4336H55.8203V74.8984ZM63.9453 84C63.8411 83.7917 63.7565 83.4206 63.6914 82.8867C62.8516 83.7591 61.849 84.1953 60.6836 84.1953C59.6419 84.1953 58.7858 83.9023 58.1152 83.3164C57.4512 82.724 57.1191 81.9753 57.1191 81.0703C57.1191 79.9701 57.5358 79.1172 58.3691 78.5117C59.209 77.8997 60.3874 77.5938 61.9043 77.5938H63.6621V76.7637C63.6621 76.1322 63.4733 75.6309 63.0957 75.2598C62.7181 74.8822 62.1615 74.6934 61.4258 74.6934C60.7812 74.6934 60.2409 74.8561 59.8047 75.1816C59.3685 75.5072 59.1504 75.901 59.1504 76.3633H57.334C57.334 75.8359 57.5195 75.3281 57.8906 74.8398C58.2682 74.3451 58.776 73.9544 59.4141 73.668C60.0586 73.3815 60.765 73.2383 61.5332 73.2383C62.7507 73.2383 63.7044 73.5443 64.3945 74.1562C65.0846 74.7617 65.4427 75.5983 65.4688 76.666V81.5293C65.4688 82.4993 65.5924 83.2708 65.8398 83.8438V84H63.9453ZM60.9473 82.623C61.5137 82.623 62.0508 82.4766 62.5586 82.1836C63.0664 81.8906 63.4342 81.5098 63.6621 81.041V78.873H62.2461C60.0326 78.873 58.9258 79.5208 58.9258 80.8164C58.9258 81.3828 59.1146 81.8255 59.4922 82.1445C59.8698 82.4635 60.3548 82.623 60.9473 82.623ZM70.166 73.4336V82.5254H74.0332V73.4336H75.8398V82.5254H79.6973V73.4336H81.5137V82.5254H82.998L82.8223 87.1348H81.2012V84H68.3496V73.4336H70.166ZM91.6797 73.4336H93.4863V84H91.6797V76.2949L86.8066 84H85V73.4336H86.8066V81.1484L91.6797 73.4336ZM104.238 74.8984H100.693V84H98.8867V74.8984H95.4102V73.4336H104.238V74.8984ZM109.6 84.1953C108.167 84.1953 107.002 83.7266 106.104 82.7891C105.205 81.8451 104.756 80.5853 104.756 79.0098V78.6777C104.756 77.6296 104.954 76.6953 105.352 75.875C105.755 75.0482 106.315 74.4036 107.031 73.9414C107.754 73.4727 108.535 73.2383 109.375 73.2383C110.749 73.2383 111.816 73.6908 112.578 74.5957C113.34 75.5007 113.721 76.7962 113.721 78.4824V79.2344H106.562C106.589 80.276 106.891 81.1191 107.471 81.7637C108.057 82.4017 108.799 82.7207 109.697 82.7207C110.335 82.7207 110.876 82.5905 111.318 82.3301C111.761 82.0697 112.148 81.7246 112.48 81.2949L113.584 82.1543C112.699 83.515 111.37 84.1953 109.6 84.1953ZM109.375 74.7227C108.646 74.7227 108.034 74.9896 107.539 75.5234C107.044 76.0508 106.738 76.793 106.621 77.75H111.914V77.6133C111.862 76.6953 111.615 75.9857 111.172 75.4844C110.729 74.9766 110.13 74.7227 109.375 74.7227ZM127.617 73.4336H129.424V84H127.617V76.2949L122.744 84H120.938V73.4336H122.744V81.1484L127.617 73.4336ZM140.986 73.4336V84H139.17V74.9277H135.576L135.361 78.8828C135.244 80.6992 134.938 81.998 134.443 82.7793C133.955 83.5605 133.177 83.9674 132.109 84H131.387V82.4082L131.904 82.3691C132.49 82.304 132.91 81.9655 133.164 81.3535C133.418 80.7415 133.581 79.6087 133.652 77.9551L133.848 73.4336H140.986ZM150.723 73.4336H152.529V84H150.723V76.2949L145.85 84H144.043V73.4336H145.85V81.1484L150.723 73.4336Z" fill="#1B1B1B"/>
<path d="M160.557 84V73.4336H164.678C166.084 73.4336 167.161 73.681 167.91 74.1758C168.665 74.6641 169.043 75.3835 169.043 76.334C169.043 76.8223 168.896 77.265 168.604 77.6621C168.311 78.0527 167.878 78.3522 167.305 78.5605C167.943 78.7103 168.454 79.0033 168.838 79.4395C169.229 79.8757 169.424 80.3965 169.424 81.002C169.424 81.972 169.066 82.7142 168.35 83.2285C167.64 83.7428 166.634 84 165.332 84H160.557ZM162.363 79.3613V82.5449H165.352C166.107 82.5449 166.67 82.4049 167.041 82.125C167.419 81.8451 167.607 81.4512 167.607 80.9434C167.607 79.8887 166.833 79.3613 165.283 79.3613H162.363ZM162.363 77.916H164.697C166.39 77.916 167.236 77.4212 167.236 76.4316C167.236 75.4421 166.436 74.931 164.834 74.8984H162.363V77.916ZM173.789 77.0762H176.533C177.731 77.0892 178.678 77.4017 179.375 78.0137C180.072 78.6257 180.42 79.4557 180.42 80.5039C180.42 81.5586 180.062 82.4049 179.346 83.043C178.63 83.681 177.666 84 176.455 84H171.982V73.4336H173.789V77.0762ZM184.189 84H182.373V73.4336H184.189V84ZM173.789 78.5508V82.5254H176.475C177.152 82.5254 177.676 82.3529 178.047 82.0078C178.418 81.6562 178.604 81.1777 178.604 80.5723C178.604 79.9863 178.421 79.5078 178.057 79.1367C177.699 78.7591 177.194 78.5638 176.543 78.5508H173.789ZM191.982 74.0391C193.311 74.0391 194.372 74.485 195.166 75.377C195.967 76.2624 196.367 77.431 196.367 78.8828V79.0488C196.367 80.0449 196.175 80.9368 195.791 81.7246C195.407 82.5059 194.854 83.1146 194.131 83.5508C193.415 83.9805 192.588 84.1953 191.65 84.1953C190.231 84.1953 189.089 83.7233 188.223 82.7793C187.357 81.8288 186.924 80.556 186.924 78.9609V78.082C186.924 75.862 187.334 74.0977 188.154 72.7891C188.981 71.4805 190.199 70.6829 191.807 70.3965C192.718 70.2337 193.333 70.0352 193.652 69.8008C193.971 69.5664 194.131 69.2441 194.131 68.834H195.615C195.615 69.6478 195.43 70.2826 195.059 70.7383C194.694 71.194 194.108 71.5163 193.301 71.7051L191.953 72.0078C190.879 72.2617 190.072 72.6914 189.531 73.2969C188.997 73.8958 188.649 74.6966 188.486 75.6992C189.443 74.5924 190.609 74.0391 191.982 74.0391ZM191.631 75.5234C190.745 75.5234 190.042 75.8229 189.521 76.4219C189.001 77.0143 188.74 77.8379 188.74 78.8926V79.0488C188.74 80.1816 189.001 81.0801 189.521 81.7441C190.049 82.4017 190.758 82.7305 191.65 82.7305C192.549 82.7305 193.258 82.3984 193.779 81.7344C194.3 81.0703 194.561 80.1003 194.561 78.8242C194.561 77.8281 194.297 77.0306 193.77 76.4316C193.249 75.8262 192.536 75.5234 191.631 75.5234ZM202.783 84.1953C201.351 84.1953 200.186 83.7266 199.287 82.7891C198.389 81.8451 197.939 80.5853 197.939 79.0098V78.6777C197.939 77.6296 198.138 76.6953 198.535 75.875C198.939 75.0482 199.499 74.4036 200.215 73.9414C200.938 73.4727 201.719 73.2383 202.559 73.2383C203.932 73.2383 205 73.6908 205.762 74.5957C206.523 75.5007 206.904 76.7962 206.904 78.4824V79.2344H199.746C199.772 80.276 200.075 81.1191 200.654 81.7637C201.24 82.4017 201.982 82.7207 202.881 82.7207C203.519 82.7207 204.059 82.5905 204.502 82.3301C204.945 82.0697 205.332 81.7246 205.664 81.2949L206.768 82.1543C205.882 83.515 204.554 84.1953 202.783 84.1953ZM202.559 74.7227C201.829 74.7227 201.217 74.9896 200.723 75.5234C200.228 76.0508 199.922 76.793 199.805 77.75H205.098V77.6133C205.046 76.6953 204.798 75.9857 204.355 75.4844C203.913 74.9766 203.314 74.7227 202.559 74.7227ZM217.93 78.834C217.93 80.4421 217.562 81.7376 216.826 82.7207C216.09 83.7038 215.094 84.1953 213.838 84.1953C212.555 84.1953 211.546 83.7884 210.811 82.9746V88.0625H209.004V73.4336H210.654L210.742 74.6055C211.478 73.694 212.5 73.2383 213.809 73.2383C215.078 73.2383 216.081 73.7168 216.816 74.6738C217.559 75.6309 217.93 76.9622 217.93 78.668V78.834ZM216.123 78.6289C216.123 77.4375 215.869 76.4967 215.361 75.8066C214.854 75.1165 214.157 74.7715 213.271 74.7715C212.178 74.7715 211.357 75.2565 210.811 76.2266V81.2754C211.351 82.2389 212.178 82.7207 213.291 82.7207C214.157 82.7207 214.844 82.3789 215.352 81.6953C215.866 81.0052 216.123 79.9831 216.123 78.6289ZM227.07 73.4336H228.877V84H227.07V76.2949L222.197 84H220.391V73.4336H222.197V81.1484L227.07 73.4336ZM239.629 74.8984H236.084V84H234.277V74.8984H230.801V73.4336H239.629V74.8984ZM244.99 84.1953C243.558 84.1953 242.393 83.7266 241.494 82.7891C240.596 81.8451 240.146 80.5853 240.146 79.0098V78.6777C240.146 77.6296 240.345 76.6953 240.742 75.875C241.146 75.0482 241.706 74.4036 242.422 73.9414C243.145 73.4727 243.926 73.2383 244.766 73.2383C246.139 73.2383 247.207 73.6908 247.969 74.5957C248.73 75.5007 249.111 76.7962 249.111 78.4824V79.2344H241.953C241.979 80.276 242.282 81.1191 242.861 81.7637C243.447 82.4017 244.189 82.7207 245.088 82.7207C245.726 82.7207 246.266 82.5905 246.709 82.3301C247.152 82.0697 247.539 81.7246 247.871 81.2949L248.975 82.1543C248.089 83.515 246.761 84.1953 244.99 84.1953ZM244.766 74.7227C244.036 74.7227 243.424 74.9896 242.93 75.5234C242.435 76.0508 242.129 76.793 242.012 77.75H247.305V77.6133C247.253 76.6953 247.005 75.9857 246.562 75.4844C246.12 74.9766 245.521 74.7227 244.766 74.7227ZM255.781 78.9121C255.781 77.1478 256.123 75.7611 256.807 74.752C257.49 73.7428 258.428 73.2383 259.619 73.2383C260.173 73.2383 260.658 73.3327 261.074 73.5215V69H262.881V73.5801C263.337 73.3522 263.87 73.2383 264.482 73.2383C265.68 73.2383 266.621 73.7428 267.305 74.752C267.988 75.7611 268.33 77.2161 268.33 79.1172C268.33 80.6732 267.988 81.9102 267.305 82.8281C266.628 83.7461 265.693 84.2051 264.502 84.2051C263.87 84.2051 263.33 84.1009 262.881 83.8926V88.0625H261.074V83.9219C260.645 84.1107 260.153 84.2051 259.6 84.2051C258.415 84.2051 257.48 83.7461 256.797 82.8281C256.12 81.9102 255.781 80.6536 255.781 79.0586V78.9121ZM266.523 78.9121C266.523 77.584 266.296 76.5553 265.84 75.8262C265.384 75.0905 264.756 74.7227 263.955 74.7227C263.545 74.7227 263.187 74.7878 262.881 74.918V82.5645C263.174 82.6751 263.538 82.7305 263.975 82.7305C264.782 82.7305 265.407 82.418 265.85 81.793C266.299 81.168 266.523 80.2077 266.523 78.9121ZM257.588 79.1172C257.588 80.3021 257.799 81.2005 258.223 81.8125C258.646 82.4245 259.255 82.7305 260.049 82.7305C260.426 82.7305 260.768 82.6719 261.074 82.5547V74.8887C260.801 74.778 260.465 74.7227 260.068 74.7227C259.274 74.7227 258.662 75.0775 258.232 75.7871C257.803 76.4967 257.588 77.6068 257.588 79.1172ZM277.207 84C277.103 83.7917 277.018 83.4206 276.953 82.8867C276.113 83.7591 275.111 84.1953 273.945 84.1953C272.904 84.1953 272.048 83.9023 271.377 83.3164C270.713 82.724 270.381 81.9753 270.381 81.0703C270.381 79.9701 270.798 79.1172 271.631 78.5117C272.471 77.8997 273.649 77.5938 275.166 77.5938H276.924V76.7637C276.924 76.1322 276.735 75.6309 276.357 75.2598C275.98 74.8822 275.423 74.6934 274.688 74.6934C274.043 74.6934 273.503 74.8561 273.066 75.1816C272.63 75.5072 272.412 75.901 272.412 76.3633H270.596C270.596 75.8359 270.781 75.3281 271.152 74.8398C271.53 74.3451 272.038 73.9544 272.676 73.668C273.32 73.3815 274.027 73.2383 274.795 73.2383C276.012 73.2383 276.966 73.5443 277.656 74.1562C278.346 74.7617 278.704 75.5983 278.73 76.666V81.5293C278.73 82.4993 278.854 83.2708 279.102 83.8438V84H277.207ZM274.209 82.623C274.775 82.623 275.312 82.4766 275.82 82.1836C276.328 81.8906 276.696 81.5098 276.924 81.041V78.873H275.508C273.294 78.873 272.188 79.5208 272.188 80.8164C272.188 81.3828 272.376 81.8255 272.754 82.1445C273.132 82.4635 273.617 82.623 274.209 82.623ZM288.398 73.4336H290.205V84H288.398V76.2949L283.525 84H281.719V73.4336H283.525V81.1484L288.398 73.4336ZM288.887 69.5859C288.887 70.3737 288.617 71.0085 288.076 71.4902C287.542 71.9655 286.839 72.2031 285.967 72.2031C285.094 72.2031 284.388 71.9622 283.848 71.4805C283.307 70.9987 283.037 70.3672 283.037 69.5859H284.512C284.512 70.0417 284.635 70.3997 284.883 70.6602C285.13 70.9141 285.492 71.041 285.967 71.041C286.423 71.041 286.777 70.9141 287.031 70.6602C287.292 70.4062 287.422 70.0482 287.422 69.5859H288.887ZM301.768 73.4336V84H299.951V74.9277H296.357L296.143 78.8828C296.025 80.6992 295.719 81.998 295.225 82.7793C294.736 83.5605 293.958 83.9674 292.891 84H292.168V82.4082L292.686 82.3691C293.271 82.304 293.691 81.9655 293.945 81.3535C294.199 80.7415 294.362 79.6087 294.434 77.9551L294.629 73.4336H301.768Z" fill="#508E87"/>
<path d="M62.3252 102.047H63.6445V109.095C63.6445 110.047 63.3574 110.792 62.7832 111.33C62.2135 111.868 61.4525 112.137 60.5 112.137C59.5111 112.137 58.7409 111.884 58.1895 111.378C57.638 110.872 57.3623 110.163 57.3623 109.252H58.6748C58.6748 109.822 58.8298 110.266 59.1396 110.585C59.4541 110.904 59.9076 111.063 60.5 111.063C61.0423 111.063 61.4798 110.893 61.8125 110.551C62.1497 110.209 62.3206 109.73 62.3252 109.115V102.047ZM67.1924 108.104V112H65.8799V102.047H69.5508C70.64 102.047 71.4922 102.325 72.1074 102.881C72.7272 103.437 73.0371 104.173 73.0371 105.089C73.0371 106.055 72.734 106.8 72.1279 107.324C71.5264 107.844 70.6628 108.104 69.5371 108.104H67.1924ZM67.1924 107.03H69.5508C70.2526 107.03 70.7904 106.866 71.1641 106.538C71.5378 106.205 71.7246 105.727 71.7246 105.103C71.7246 104.51 71.5378 104.036 71.1641 103.681C70.7904 103.325 70.2777 103.141 69.626 103.127H67.1924V107.03ZM82.0605 110.694C81.7233 111.177 81.2516 111.54 80.6455 111.781C80.0439 112.018 79.3421 112.137 78.54 112.137C77.7288 112.137 77.0088 111.948 76.3799 111.569C75.751 111.187 75.2633 110.644 74.917 109.942C74.5752 109.241 74.3997 108.427 74.3906 107.502V106.634C74.3906 105.134 74.7393 103.972 75.4365 103.147C76.1383 102.323 77.1227 101.91 78.3896 101.91C79.4287 101.91 80.265 102.177 80.8984 102.71C81.5319 103.239 81.9193 103.991 82.0605 104.966H80.748C80.502 103.649 79.7181 102.99 78.3965 102.99C77.5169 102.99 76.8493 103.3 76.3936 103.92C75.9424 104.535 75.7145 105.428 75.71 106.6V107.413C75.71 108.53 75.9652 109.418 76.4756 110.079C76.986 110.735 77.6764 111.063 78.5469 111.063C79.0391 111.063 79.4697 111.009 79.8389 110.899C80.208 110.79 80.5133 110.605 80.7549 110.346V108.11H78.4512V107.044H82.0605V110.694ZM92.3145 104.604H93.5791V112H92.3145V106.606L88.9033 112H87.6387V104.604H88.9033V110.004L92.3145 104.604ZM101.673 104.604V112H100.401V105.649H97.8857L97.7354 108.418C97.6533 109.689 97.4391 110.599 97.0928 111.146C96.751 111.692 96.2064 111.977 95.459 112H94.9531V110.886L95.3154 110.858C95.7256 110.813 96.0195 110.576 96.1973 110.147C96.375 109.719 96.4889 108.926 96.5391 107.769L96.6758 104.604H101.673ZM108.488 104.604H109.753V112H108.488V106.606L105.077 112H103.812V104.604H105.077V110.004L108.488 104.604ZM116.767 108.104V112H115.454V102.047H119.125C120.214 102.047 121.066 102.325 121.682 102.881C122.301 103.437 122.611 104.173 122.611 105.089C122.611 106.055 122.308 106.8 121.702 107.324C121.101 107.844 120.237 108.104 119.111 108.104H116.767ZM116.767 107.03H119.125C119.827 107.03 120.365 106.866 120.738 106.538C121.112 106.205 121.299 105.727 121.299 105.103C121.299 104.51 121.112 104.036 120.738 103.681C120.365 103.325 119.852 103.141 119.2 103.127H116.767V107.03ZM131.936 112H130.616L125.605 104.33V112H124.286V102.047H125.605L130.63 109.751V102.047H131.936V112ZM141.615 110.694C141.278 111.177 140.806 111.54 140.2 111.781C139.599 112.018 138.897 112.137 138.095 112.137C137.284 112.137 136.563 111.948 135.935 111.569C135.306 111.187 134.818 110.644 134.472 109.942C134.13 109.241 133.954 108.427 133.945 107.502V106.634C133.945 105.134 134.294 103.972 134.991 103.147C135.693 102.323 136.677 101.91 137.944 101.91C138.983 101.91 139.82 102.177 140.453 102.71C141.087 103.239 141.474 103.991 141.615 104.966H140.303C140.057 103.649 139.273 102.99 137.951 102.99C137.072 102.99 136.404 103.3 135.948 103.92C135.497 104.535 135.269 105.428 135.265 106.6V107.413C135.265 108.53 135.52 109.418 136.03 110.079C136.541 110.735 137.231 111.063 138.102 111.063C138.594 111.063 139.024 111.009 139.394 110.899C139.763 110.79 140.068 110.605 140.31 110.346V108.11H138.006V107.044H141.615V110.694ZM143.57 113.982L142.853 113.49C143.281 112.893 143.504 112.278 143.522 111.645V110.503H144.76V111.494C144.76 111.954 144.646 112.415 144.418 112.875C144.195 113.335 143.912 113.704 143.57 113.982ZM155.875 112H154.61V108.842H151.213V112H149.941V104.604H151.213V107.81H154.61V104.604H155.875V112ZM160.981 112.137C159.979 112.137 159.163 111.809 158.534 111.152C157.905 110.492 157.591 109.61 157.591 108.507V108.274C157.591 107.541 157.73 106.887 158.008 106.312C158.29 105.734 158.682 105.283 159.184 104.959C159.689 104.631 160.236 104.467 160.824 104.467C161.786 104.467 162.533 104.784 163.066 105.417C163.6 106.05 163.866 106.957 163.866 108.138V108.664H158.855C158.874 109.393 159.086 109.983 159.491 110.435C159.901 110.881 160.421 111.104 161.05 111.104C161.496 111.104 161.875 111.013 162.185 110.831C162.494 110.649 162.766 110.407 162.998 110.106L163.771 110.708C163.151 111.66 162.221 112.137 160.981 112.137ZM160.824 105.506C160.314 105.506 159.885 105.693 159.539 106.066C159.193 106.436 158.979 106.955 158.896 107.625H162.602V107.529C162.565 106.887 162.392 106.39 162.082 106.039C161.772 105.684 161.353 105.506 160.824 105.506ZM172.056 105.027C172.985 105.027 173.728 105.34 174.284 105.964C174.845 106.584 175.125 107.402 175.125 108.418V108.534C175.125 109.231 174.991 109.856 174.722 110.407C174.453 110.954 174.065 111.38 173.56 111.686C173.058 111.986 172.479 112.137 171.823 112.137C170.83 112.137 170.03 111.806 169.424 111.146C168.818 110.48 168.515 109.589 168.515 108.473V107.857C168.515 106.303 168.802 105.068 169.376 104.152C169.955 103.236 170.807 102.678 171.933 102.478C172.571 102.364 173.001 102.225 173.225 102.061C173.448 101.896 173.56 101.671 173.56 101.384H174.599C174.599 101.953 174.469 102.398 174.209 102.717C173.954 103.036 173.544 103.261 172.979 103.394L172.035 103.605C171.283 103.783 170.718 104.084 170.34 104.508C169.966 104.927 169.722 105.488 169.608 106.189C170.278 105.415 171.094 105.027 172.056 105.027ZM171.81 106.066C171.19 106.066 170.698 106.276 170.333 106.695C169.968 107.11 169.786 107.687 169.786 108.425V108.534C169.786 109.327 169.968 109.956 170.333 110.421C170.702 110.881 171.199 111.111 171.823 111.111C172.452 111.111 172.949 110.879 173.313 110.414C173.678 109.949 173.86 109.27 173.86 108.377C173.86 107.68 173.676 107.121 173.307 106.702C172.942 106.278 172.443 106.066 171.81 106.066ZM176.212 108.233C176.212 107.509 176.353 106.857 176.636 106.278C176.923 105.7 177.319 105.253 177.825 104.938C178.336 104.624 178.917 104.467 179.568 104.467C180.576 104.467 181.389 104.815 182.009 105.513C182.633 106.21 182.945 107.137 182.945 108.295V108.384C182.945 109.104 182.806 109.751 182.528 110.325C182.255 110.895 181.861 111.339 181.346 111.658C180.835 111.977 180.247 112.137 179.582 112.137C178.579 112.137 177.766 111.788 177.142 111.091C176.522 110.394 176.212 109.471 176.212 108.322V108.233ZM177.483 108.384C177.483 109.204 177.673 109.863 178.051 110.359C178.434 110.856 178.944 111.104 179.582 111.104C180.225 111.104 180.735 110.854 181.113 110.353C181.492 109.847 181.681 109.14 181.681 108.233C181.681 107.422 181.487 106.766 181.1 106.265C180.717 105.759 180.206 105.506 179.568 105.506C178.944 105.506 178.44 105.754 178.058 106.251C177.675 106.748 177.483 107.459 177.483 108.384ZM190.485 104.604V112H189.214V105.649H186.698L186.548 108.418C186.466 109.689 186.252 110.599 185.905 111.146C185.563 111.692 185.019 111.977 184.271 112H183.766V110.886L184.128 110.858C184.538 110.813 184.832 110.576 185.01 110.147C185.188 109.719 185.301 108.926 185.352 107.769L185.488 104.604H190.485ZM195.585 112.137C194.582 112.137 193.767 111.809 193.138 111.152C192.509 110.492 192.194 109.61 192.194 108.507V108.274C192.194 107.541 192.333 106.887 192.611 106.312C192.894 105.734 193.286 105.283 193.787 104.959C194.293 104.631 194.84 104.467 195.428 104.467C196.389 104.467 197.137 104.784 197.67 105.417C198.203 106.05 198.47 106.957 198.47 108.138V108.664H193.459C193.477 109.393 193.689 109.983 194.095 110.435C194.505 110.881 195.024 111.104 195.653 111.104C196.1 111.104 196.478 111.013 196.788 110.831C197.098 110.649 197.369 110.407 197.602 110.106L198.374 110.708C197.754 111.66 196.825 112.137 195.585 112.137ZM195.428 105.506C194.917 105.506 194.489 105.693 194.143 106.066C193.796 106.436 193.582 106.955 193.5 107.625H197.205V107.529C197.169 106.887 196.995 106.39 196.686 106.039C196.376 105.684 195.956 105.506 195.428 105.506ZM203.009 112.137C202.006 112.137 201.19 111.809 200.562 111.152C199.933 110.492 199.618 109.61 199.618 108.507V108.274C199.618 107.541 199.757 106.887 200.035 106.312C200.318 105.734 200.71 105.283 201.211 104.959C201.717 104.631 202.264 104.467 202.852 104.467C203.813 104.467 204.561 104.784 205.094 105.417C205.627 106.05 205.894 106.957 205.894 108.138V108.664H200.883C200.901 109.393 201.113 109.983 201.519 110.435C201.929 110.881 202.448 111.104 203.077 111.104C203.524 111.104 203.902 111.013 204.212 110.831C204.522 110.649 204.793 110.407 205.025 110.106L205.798 110.708C205.178 111.66 204.248 112.137 203.009 112.137ZM202.852 105.506C202.341 105.506 201.913 105.693 201.566 106.066C201.22 106.436 201.006 106.955 200.924 107.625H204.629V107.529C204.592 106.887 204.419 106.39 204.109 106.039C203.799 105.684 203.38 105.506 202.852 105.506ZM212.545 106.408H213.495C214.092 106.399 214.562 106.242 214.903 105.937C215.245 105.631 215.416 105.219 215.416 104.699C215.416 103.533 214.835 102.949 213.673 102.949C213.126 102.949 212.688 103.106 212.36 103.421C212.037 103.731 211.875 104.143 211.875 104.658H210.61C210.61 103.87 210.897 103.216 211.472 102.696C212.05 102.172 212.784 101.91 213.673 101.91C214.612 101.91 215.348 102.159 215.881 102.655C216.414 103.152 216.681 103.842 216.681 104.727C216.681 105.16 216.539 105.579 216.257 105.984C215.979 106.39 215.598 106.693 215.115 106.894C215.662 107.067 216.084 107.354 216.38 107.755C216.681 108.156 216.831 108.646 216.831 109.225C216.831 110.118 216.539 110.826 215.956 111.351C215.373 111.875 214.614 112.137 213.68 112.137C212.745 112.137 211.984 111.884 211.396 111.378C210.813 110.872 210.521 110.204 210.521 109.375H211.793C211.793 109.899 211.964 110.318 212.306 110.633C212.647 110.947 213.105 111.104 213.68 111.104C214.29 111.104 214.757 110.945 215.081 110.626C215.405 110.307 215.566 109.849 215.566 109.252C215.566 108.673 215.389 108.229 215.033 107.919C214.678 107.609 214.165 107.45 213.495 107.44H212.545V106.408ZM224.809 107.755C224.809 109.236 224.556 110.337 224.05 111.057C223.544 111.777 222.753 112.137 221.678 112.137C220.616 112.137 219.83 111.786 219.319 111.084C218.809 110.378 218.545 109.325 218.526 107.926V106.237C218.526 104.774 218.779 103.688 219.285 102.977C219.791 102.266 220.584 101.91 221.664 101.91C222.735 101.91 223.523 102.254 224.029 102.942C224.535 103.626 224.795 104.683 224.809 106.114V107.755ZM223.544 106.025C223.544 104.954 223.394 104.175 223.093 103.688C222.792 103.195 222.316 102.949 221.664 102.949C221.017 102.949 220.545 103.193 220.249 103.681C219.953 104.168 219.8 104.918 219.791 105.93V107.953C219.791 109.029 219.946 109.824 220.256 110.339C220.57 110.849 221.044 111.104 221.678 111.104C222.302 111.104 222.765 110.863 223.065 110.38C223.371 109.897 223.53 109.136 223.544 108.097V106.025ZM234.29 110.325L236.806 104.604H238.385V112H237.12V106.62L234.728 112H233.853L231.412 106.504V112H230.147V104.604H231.788L234.29 110.325ZM243.669 105.027C244.599 105.027 245.341 105.34 245.897 105.964C246.458 106.584 246.738 107.402 246.738 108.418V108.534C246.738 109.231 246.604 109.856 246.335 110.407C246.066 110.954 245.679 111.38 245.173 111.686C244.672 111.986 244.093 112.137 243.437 112.137C242.443 112.137 241.643 111.806 241.037 111.146C240.431 110.48 240.128 109.589 240.128 108.473V107.857C240.128 106.303 240.415 105.068 240.989 104.152C241.568 103.236 242.42 102.678 243.546 102.478C244.184 102.364 244.615 102.225 244.838 102.061C245.061 101.896 245.173 101.671 245.173 101.384H246.212C246.212 101.953 246.082 102.398 245.822 102.717C245.567 103.036 245.157 103.261 244.592 103.394L243.648 103.605C242.896 103.783 242.331 104.084 241.953 104.508C241.579 104.927 241.336 105.488 241.222 106.189C241.892 105.415 242.707 105.027 243.669 105.027ZM243.423 106.066C242.803 106.066 242.311 106.276 241.946 106.695C241.582 107.11 241.399 107.687 241.399 108.425V108.534C241.399 109.327 241.582 109.956 241.946 110.421C242.315 110.881 242.812 111.111 243.437 111.111C244.065 111.111 244.562 110.879 244.927 110.414C245.291 109.949 245.474 109.27 245.474 108.377C245.474 107.68 245.289 107.121 244.92 106.702C244.555 106.278 244.056 106.066 243.423 106.066Z" fill="#828282"/>
<path d="M164 32L156 24L148 32" stroke="black" stroke-width="2" stroke-linecap="round" stroke-linejoin="round"/>
<path d="M156 24V42" stroke="#61A199" stroke-width="2" stroke-linecap="round" stroke-linejoin="round"/>
<path d="M172.781 36.78C174.732 35.7165 176.273 34.0337 177.161 31.9972C178.049 29.9607 178.233 27.6864 177.685 25.5334C177.137 23.3803 175.888 21.471 174.134 20.1069C172.381 18.7427 170.223 18.0014 168.001 18H165.481C164.876 15.6585 163.747 13.4846 162.181 11.642C160.614 9.79927 158.651 8.33567 156.437 7.36118C154.224 6.3867 151.818 5.92669 149.401 6.01573C146.984 6.10478 144.619 6.74057 142.483 7.8753C140.347 9.01003 138.497 10.6142 137.07 12.5671C135.644 14.5201 134.678 16.771 134.247 19.1508C133.815 21.5305 133.929 23.977 134.579 26.3065C135.23 28.636 136.399 30.7877 138.001 32.6" stroke="#1B1B1B" stroke-width="2" stroke-linecap="round" stroke-linejoin="round"/>
<path d="M164 32L156 24L148 32" stroke="#61A199" stroke-width="2" stroke-linecap="round" stroke-linejoin="round"/>
</svg>
