<svg width="73" height="48" viewBox="0 0 73 48" fill="none" xmlns="http://www.w3.org/2000/svg">
    <path d="M11.8603 41.3293L3.5332 43.66L3.90317 44.9818L12.2302 42.651L11.8603 41.3293Z" fill="#3F3D56"/>
    <path d="M72.1595 24.8078L70.5522 25.6853L5.25742 43.9615L4.28801 42.7574C2.60828 40.6965 1.53458 38.2093 1.18684 35.5735C0.940282 33.6053 1.12062 31.5309 2.49361 30.2682L0 10.1566L36.1116 0L53.2393 7.36996C53.2393 7.36996 59.8 5.40958 64.628 8.86865C66.1562 9.96455 67.5115 11.6034 68.4279 14.0222L69.2173 16.3027L72.1595 24.8078Z" fill="#575A89"/>
    <path d="M57.7261 36.8641C62.3502 36.8641 66.0987 33.1156 66.0987 28.4915C66.0987 23.8674 62.3502 20.1189 57.7261 20.1189C53.1021 20.1189 49.3535 23.8674 49.3535 28.4915C49.3535 33.1156 53.1021 36.8641 57.7261 36.8641Z" fill="#3F3D56"/>
    <path d="M57.725 32.8981C60.1587 32.8981 62.1316 30.9252 62.1316 28.4915C62.1316 26.0578 60.1587 24.0848 57.725 24.0848C55.2913 24.0848 53.3184 26.0578 53.3184 28.4915C53.3184 30.9252 55.2913 32.8981 57.725 32.8981Z" fill="#D0CDE1"/>
    <path d="M17.941 48.0001C22.565 48.0001 26.3136 44.2515 26.3136 39.6275C26.3136 35.0034 22.565 31.2549 17.941 31.2549C13.3169 31.2549 9.56836 35.0034 9.56836 39.6275C9.56836 44.2515 13.3169 48.0001 17.941 48.0001Z" fill="#3F3D56"/>
    <path d="M17.9418 44.034C20.3755 44.034 22.3484 42.061 22.3484 39.6273C22.3484 37.1936 20.3755 35.2207 17.9418 35.2207C15.5081 35.2207 13.5352 37.1936 13.5352 39.6273C13.5352 42.061 15.5081 44.034 17.9418 44.034Z" fill="#D0CDE1"/>
    <path d="M47.3179 7.60202L21.4112 14.8534L19.2285 7.05504L35.7506 2.4303L47.3179 7.60202Z" fill="white"/>
    <path d="M16.0558 7.94277L5.74609 10.8285L7.92888 18.6269L18.2386 15.7411L16.0558 7.94277Z" fill="white"/>
    <path d="M24.3608 20.2991L23.0391 20.6691L23.742 23.1804L25.0638 22.8105L24.3608 20.2991Z" fill="#3F3D56"/>
    <path d="M45.5399 11.9477L45.1699 10.626L42.6586 11.3289L43.0285 12.6507L45.5399 11.9477Z" fill="#3F3D56"/>
    <path d="M42.2031 6.12659L42.3485 6.08589C43.0812 5.88082 43.8653 5.97519 44.5284 6.34824C45.1914 6.7213 45.6791 7.34248 45.8842 8.07513C46.0893 8.80778 45.9949 9.59189 45.6219 10.255C45.2488 10.918 44.6276 11.4057 43.895 11.6108L43.7496 11.6515L42.2031 6.12659Z" fill="#3F3D56"/>
    <path d="M69.2183 16.3026C68.2489 16.6906 67.1738 16.724 66.1822 16.397C65.1906 16.0701 64.3462 15.4037 63.7978 14.5153C63.2493 13.6268 63.032 12.5734 63.184 11.5404C63.336 10.5074 63.8477 9.56125 64.6289 8.86853C66.1572 9.96444 67.5124 11.6033 68.4289 14.0221L69.2183 16.3026Z" fill="#3F3D56"/>
</svg>
